<?xml version="1.0" standalone="no"?>
<!DOCTYPE svg PUBLIC "-//W3C//DTD SVG 20010904//EN"
 "http://www.w3.org/TR/2001/REC-SVG-20010904/DTD/svg10.dtd">
<svg version="1.0" xmlns="http://www.w3.org/2000/svg"
 width="832.000000pt" height="832.000000pt" viewBox="0 0 832.000000 832.000000"
 preserveAspectRatio="xMidYMid meet">
<metadata>
Created by potrace 1.14, written by Peter Selinger 2001-2017
</metadata>
<g transform="translate(0.000000,832.000000) scale(0.100000,-0.100000)"
fill="#000000" stroke="none">
<path d="M6239 5686 c-2 -2 -38 -7 -79 -11 -41 -3 -82 -8 -90 -10 -8 -2 -35
-7 -60 -10 -386 -52 -811 -232 -1180 -498 -47 -34 -90 -66 -96 -72 -6 -5 -29
-23 -50 -40 -102 -80 -191 -162 -361 -333 -119 -120 -145 -141 -156 -130 -15
14 -190 174 -217 198 -9 8 -45 40 -80 70 -34 30 -70 62 -79 71 -45 44 -286
235 -351 279 -13 8 -35 24 -49 36 -52 41 -239 153 -346 207 -254 127 -481 194
-770 226 -80 9 -468 7 -515 -2 -14 -3 -50 -8 -80 -12 -30 -4 -71 -9 -90 -11
-58 -8 -245 -53 -333 -80 -500 -158 -899 -475 -1090 -867 -65 -132 -117 -284
-133 -387 -3 -19 -8 -46 -10 -60 -11 -49 -13 -326 -3 -390 32 -223 122 -441
254 -620 231 -313 598 -549 1028 -659 228 -59 380 -76 652 -76 205 1 273 7
510 51 123 22 374 109 535 185 194 92 464 268 644 419 134 112 370 339 514
493 28 30 57 59 62 62 6 4 50 -32 98 -78 123 -120 185 -178 281 -266 46 -42
91 -83 100 -91 9 -8 59 -51 111 -96 422 -358 772 -545 1195 -639 17 -4 44 -9
60 -11 17 -3 39 -6 50 -9 113 -24 465 -24 630 -1 154 22 340 63 419 92 131 49
190 73 267 110 424 207 736 587 839 1024 38 160 44 218 44 390 1 170 -5 243
-25 325 -6 22 -15 58 -20 80 -34 140 -134 336 -237 470 -76 98 -214 229 -324
308 -119 86 -340 196 -495 247 -67 21 -132 42 -145 44 -146 31 -220 46 -258
51 -25 4 -56 9 -70 11 -32 6 -496 14 -501 10z m646 -301 c120 -11 355 -65 379
-87 6 -4 16 -8 23 -8 7 0 50 -18 95 -39 336 -159 551 -429 613 -771 16 -85 13
-266 -6 -354 -17 -85 -70 -235 -94 -266 -6 -8 -17 -27 -24 -42 -52 -104 -220
-284 -350 -375 -147 -102 -382 -210 -521 -239 -8 -1 -85 -18 -90 -19 -9 -2
-74 -14 -110 -21 -60 -10 -351 -12 -430 -3 -178 20 -321 52 -487 110 -94 32
-396 175 -401 190 -2 5 -8 9 -14 9 -35 0 -420 283 -564 415 -19 17 -216 199
-233 215 -9 8 -22 23 -30 33 -16 21 -52 -16 388 397 15 14 58 52 96 85 37 33
73 65 79 70 6 6 47 40 91 75 44 36 85 70 91 75 6 6 23 19 38 30 16 11 33 25
40 30 14 13 144 106 167 120 9 6 59 37 110 69 223 141 482 247 689 282 14 2
35 6 47 9 13 3 60 8 105 11 46 4 84 7 85 8 4 3 151 -3 218 -9z m-4590 -249
c397 -72 744 -256 1124 -594 112 -100 391 -374 391 -384 0 -5 -19 -28 -42 -52
-48 -47 -140 -145 -328 -346 -234 -251 -494 -507 -625 -615 -33 -28 -62 -52
-65 -55 -3 -3 -21 -17 -40 -30 -19 -13 -37 -27 -40 -30 -14 -18 -197 -133
-280 -176 -139 -72 -238 -108 -385 -140 -81 -17 -453 -11 -600 10 -411 59
-690 242 -826 542 -31 69 -74 208 -84 271 -3 21 -8 50 -10 63 -16 80 -23 331
-12 410 18 122 70 275 129 375 18 31 37 65 43 76 5 10 13 19 17 19 5 0 8 5 8
11 0 21 144 182 230 256 145 128 314 231 493 302 78 31 235 76 302 87 22 3 60
10 85 14 77 13 417 4 515 -14z"/>
</g>
</svg>
